<mxfile host="Electron" modified="2024-04-21T23:42:02.573Z" agent="Mozilla/5.0 (Macintosh; Intel Mac OS X 10_15_7) AppleWebKit/537.36 (KHTML, like Gecko) draw.io/24.2.5 Chrome/120.0.6099.109 Electron/28.1.0 Safari/537.36" etag="Bey9kF020PRsh7sH5HLf" version="24.2.5" type="device">
  <diagram name="Page-1" id="7tJ_GrAQWosIKB4zd9FW">
    <mxGraphModel dx="714" dy="999" grid="1" gridSize="10" guides="1" tooltips="1" connect="1" arrows="1" fold="1" page="1" pageScale="1" pageWidth="827" pageHeight="1169" math="0" shadow="0">
      <root>
        <mxCell id="0" />
        <mxCell id="1" parent="0" />
        <mxCell id="0FtLSjD_25oI0xcZm2T4-5" value="P1 = P0 + AR1" style="edgeStyle=orthogonalEdgeStyle;rounded=0;orthogonalLoop=1;jettySize=auto;html=1;" parent="1" source="0FtLSjD_25oI0xcZm2T4-8" target="0FtLSjD_25oI0xcZm2T4-4" edge="1">
          <mxGeometry relative="1" as="geometry">
            <Array as="points">
              <mxPoint x="500" y="540" />
              <mxPoint x="220" y="540" />
            </Array>
          </mxGeometry>
        </mxCell>
        <mxCell id="0FtLSjD_25oI0xcZm2T4-9" value="P0 + AP1" style="edgeStyle=orthogonalEdgeStyle;rounded=0;orthogonalLoop=1;jettySize=auto;html=1;entryX=0;entryY=0.5;entryDx=0;entryDy=0;" parent="1" source="0FtLSjD_25oI0xcZm2T4-1" target="0FtLSjD_25oI0xcZm2T4-8" edge="1">
          <mxGeometry relative="1" as="geometry" />
        </mxCell>
        <mxCell id="0FtLSjD_25oI0xcZm2T4-1" value="action A1 + action parameters (AP1) give action result (AR1)" style="rounded=1;whiteSpace=wrap;html=1;" parent="1" vertex="1">
          <mxGeometry x="160" y="440" width="120" height="60" as="geometry" />
        </mxCell>
        <mxCell id="0FtLSjD_25oI0xcZm2T4-3" value="P0" style="edgeStyle=orthogonalEdgeStyle;rounded=0;orthogonalLoop=1;jettySize=auto;html=1;" parent="1" source="0FtLSjD_25oI0xcZm2T4-2" target="0FtLSjD_25oI0xcZm2T4-1" edge="1">
          <mxGeometry relative="1" as="geometry" />
        </mxCell>
        <mxCell id="0FtLSjD_25oI0xcZm2T4-2" value="Transition triggered by Event + parameters (P0)" style="rounded=1;whiteSpace=wrap;html=1;" parent="1" vertex="1">
          <mxGeometry x="160" y="280" width="120" height="60" as="geometry" />
        </mxCell>
        <mxCell id="0FtLSjD_25oI0xcZm2T4-7" value="P2 = P1 + AR2" style="edgeStyle=orthogonalEdgeStyle;rounded=0;orthogonalLoop=1;jettySize=auto;html=1;" parent="1" source="0FtLSjD_25oI0xcZm2T4-10" target="0FtLSjD_25oI0xcZm2T4-6" edge="1">
          <mxGeometry relative="1" as="geometry">
            <Array as="points">
              <mxPoint x="500" y="700" />
              <mxPoint x="220" y="700" />
            </Array>
          </mxGeometry>
        </mxCell>
        <mxCell id="0FtLSjD_25oI0xcZm2T4-11" value="P1 + AP2" style="edgeStyle=orthogonalEdgeStyle;rounded=0;orthogonalLoop=1;jettySize=auto;html=1;" parent="1" source="0FtLSjD_25oI0xcZm2T4-4" target="0FtLSjD_25oI0xcZm2T4-10" edge="1">
          <mxGeometry relative="1" as="geometry" />
        </mxCell>
        <mxCell id="0FtLSjD_25oI0xcZm2T4-4" value="action A2 + action parameters (AP2) give action result (AR2)" style="rounded=1;whiteSpace=wrap;html=1;" parent="1" vertex="1">
          <mxGeometry x="160" y="600" width="120" height="60" as="geometry" />
        </mxCell>
        <mxCell id="0FtLSjD_25oI0xcZm2T4-14" value="P2 + AP3" style="edgeStyle=orthogonalEdgeStyle;rounded=0;orthogonalLoop=1;jettySize=auto;html=1;" parent="1" source="0FtLSjD_25oI0xcZm2T4-6" target="0FtLSjD_25oI0xcZm2T4-13" edge="1">
          <mxGeometry relative="1" as="geometry" />
        </mxCell>
        <mxCell id="0FtLSjD_25oI0xcZm2T4-6" value="action A3 + action parameters (AP3) give action result (AR3)" style="rounded=1;whiteSpace=wrap;html=1;" parent="1" vertex="1">
          <mxGeometry x="160" y="760" width="120" height="60" as="geometry" />
        </mxCell>
        <mxCell id="0FtLSjD_25oI0xcZm2T4-8" value="do action and generate result" style="rounded=1;whiteSpace=wrap;html=1;" parent="1" vertex="1">
          <mxGeometry x="440" y="440" width="120" height="60" as="geometry" />
        </mxCell>
        <mxCell id="0FtLSjD_25oI0xcZm2T4-10" value="do action and generate result" style="rounded=1;whiteSpace=wrap;html=1;strokeColor=default;align=center;verticalAlign=middle;fontFamily=Helvetica;fontSize=12;fontColor=default;fillColor=default;" parent="1" vertex="1">
          <mxGeometry x="440" y="600" width="120" height="60" as="geometry" />
        </mxCell>
        <mxCell id="0FtLSjD_25oI0xcZm2T4-16" value="P3 = P2 + AR3" style="edgeStyle=orthogonalEdgeStyle;rounded=0;orthogonalLoop=1;jettySize=auto;html=1;" parent="1" source="0FtLSjD_25oI0xcZm2T4-13" target="0FtLSjD_25oI0xcZm2T4-15" edge="1">
          <mxGeometry relative="1" as="geometry">
            <Array as="points">
              <mxPoint x="500" y="860" />
              <mxPoint x="220" y="860" />
            </Array>
          </mxGeometry>
        </mxCell>
        <mxCell id="0FtLSjD_25oI0xcZm2T4-13" value="Signal" style="rounded=1;whiteSpace=wrap;html=1;strokeColor=default;align=center;verticalAlign=middle;fontFamily=Helvetica;fontSize=12;fontColor=default;fillColor=default;" parent="1" vertex="1">
          <mxGeometry x="440" y="760" width="120" height="60" as="geometry" />
        </mxCell>
        <mxCell id="0FtLSjD_25oI0xcZm2T4-18" value="P3 + AP4" style="edgeStyle=orthogonalEdgeStyle;rounded=0;orthogonalLoop=1;jettySize=auto;html=1;entryX=0;entryY=0.5;entryDx=0;entryDy=0;" parent="1" source="0FtLSjD_25oI0xcZm2T4-15" target="0FtLSjD_25oI0xcZm2T4-17" edge="1">
          <mxGeometry relative="1" as="geometry" />
        </mxCell>
        <mxCell id="0FtLSjD_25oI0xcZm2T4-15" value="action A4 + action parameters (AP4) gives no result" style="rounded=1;whiteSpace=wrap;html=1;" parent="1" vertex="1">
          <mxGeometry x="160" y="920" width="120" height="60" as="geometry" />
        </mxCell>
        <mxCell id="0FtLSjD_25oI0xcZm2T4-20" value="P4 = P3" style="edgeStyle=orthogonalEdgeStyle;rounded=0;orthogonalLoop=1;jettySize=auto;html=1;" parent="1" source="0FtLSjD_25oI0xcZm2T4-17" target="0FtLSjD_25oI0xcZm2T4-19" edge="1">
          <mxGeometry relative="1" as="geometry">
            <Array as="points">
              <mxPoint x="500" y="1020" />
              <mxPoint x="220" y="1020" />
            </Array>
          </mxGeometry>
        </mxCell>
        <mxCell id="0FtLSjD_25oI0xcZm2T4-17" value="Print" style="rounded=1;whiteSpace=wrap;html=1;" parent="1" vertex="1">
          <mxGeometry x="440" y="920" width="120" height="60" as="geometry" />
        </mxCell>
        <mxCell id="0FtLSjD_25oI0xcZm2T4-19" value="action A3 + action parameters (AP3) give action result (AR3)" style="rounded=1;whiteSpace=wrap;html=1;" parent="1" vertex="1">
          <mxGeometry x="160" y="1080" width="120" height="60" as="geometry" />
        </mxCell>
      </root>
    </mxGraphModel>
  </diagram>
</mxfile>
